<svg width="25" height="25" viewBox="0 0 43 43" fill="none" xmlns="http://www.w3.org/2000/svg">
<path d="M28.0317 9.84898L21.2132 16.6675L14.3947 9.84898C13.558 9.01229 12.2009 9.01229 11.3642 9.84898L9.84899 11.3642C9.0123 12.2009 9.0123 13.558 9.84899 14.3947L16.6675 21.2132L9.84899 28.0317C9.0123 28.8684 9.0123 30.2255 9.84899 31.0622L11.3642 32.5774C12.2009 33.4141 13.558 33.4141 14.3947 32.5774L21.2132 25.7589L28.0317 32.5774C28.8684 33.4141 30.2255 33.4141 31.0622 32.5774L32.5774 31.0622C33.4141 30.2255 33.4141 28.8684 32.5774 28.0317L25.7589 21.2132L32.5774 14.3947C33.4141 13.558 33.4141 12.2009 32.5774 11.3642L31.0622 9.84898C30.2255 9.01229 28.8684 9.01229 28.0317 9.84898Z" fill="#DC0000"/>
</svg>