<svg width="20" height="27" viewBox="0 0 30 27" fill="none" xmlns="http://www.w3.org/2000/svg">
<path d="M20.9688 4.32812L25.6667 9.02604C25.8646 9.22396 25.8646 9.54687 25.6667 9.74479L14.2917 21.1198L9.45833 21.6562C8.8125 21.7292 8.26562 21.1823 8.33854 20.5365L8.875 15.7031L20.25 4.32812C20.4479 4.13021 20.7708 4.13021 20.9688 4.32812ZM29.4062 3.13542L26.8646 0.59375C26.0729 -0.197917 24.7865 -0.197917 23.9896 0.59375L22.1458 2.4375C21.9479 2.63542 21.9479 2.95833 22.1458 3.15625L26.8438 7.85417C27.0417 8.05208 27.3646 8.05208 27.5625 7.85417L29.4062 6.01042C30.1979 5.21354 30.1979 3.92708 29.4062 3.13542ZM20 18.026V23.3281H3.33333V6.66146H15.3021C15.4687 6.66146 15.625 6.59375 15.7448 6.47917L17.8281 4.39583C18.224 4 17.9427 3.32812 17.3854 3.32812H2.5C1.11979 3.32812 0 4.44792 0 5.82812V24.1615C0 25.5417 1.11979 26.6615 2.5 26.6615H20.8333C22.2135 26.6615 23.3333 25.5417 23.3333 24.1615V15.9427C23.3333 15.3854 22.6615 15.1094 22.2656 15.5L20.1823 17.5833C20.0677 17.7031 20 17.8594 20 18.026Z" fill="#0038FF"/>
</svg>
